<?xml version="1.0" encoding="UTF-8" standalone="no"?>
<!-- Created with Inkscape (http://www.inkscape.org/) -->

<svg
   width="16mm"
   height="16.000004mm"
   viewBox="0 0 16 16.000004"
   version="1.1"
   id="svg1"
   sodipodi:docname="favicon.svg"
   inkscape:version="1.4 (e7c3feb1, 2024-10-09)"
   xmlns:inkscape="http://www.inkscape.org/namespaces/inkscape"
   xmlns:sodipodi="http://sodipodi.sourceforge.net/DTD/sodipodi-0.dtd"
   xmlns="http://www.w3.org/2000/svg"
   xmlns:svg="http://www.w3.org/2000/svg">
  <sodipodi:namedview
     id="namedview1"
     pagecolor="#ffffff"
     bordercolor="#000000"
     borderopacity="0.25"
     inkscape:showpageshadow="2"
     inkscape:pageopacity="0.0"
     inkscape:pagecheckerboard="0"
     inkscape:deskcolor="#d1d1d1"
     inkscape:document-units="mm"
     inkscape:zoom="3.7175438"
     inkscape:cx="9.5493158"
     inkscape:cy="26.630486"
     inkscape:window-width="1472"
     inkscape:window-height="891"
     inkscape:window-x="0"
     inkscape:window-y="37"
     inkscape:window-maximized="1"
     inkscape:current-layer="layer1" />
  <defs
     id="defs1" />
  <g
     id="layer1"
     transform="matrix(0.25040582,0,0,0.25040582,-44.746262,-12.783638)"
     style="fill:#ffffff">
    <rect
       style="font-variation-settings:'wght' 700;fill:#ffffff;stroke-width:0.1"
       id="rect1"
       width="63.896278"
       height="63.896294"
       x="178.69498"
       y="51.051682" />
    <g
       id="g2"
       transform="translate(4.5192287,9.6844892)"
       style="fill:#000000">
      <path
         id="path82-1-8-3-9-3"
         style="font-variation-settings:'wght' 700;fill:#000000;fill-rule:evenodd;stroke:none;stroke-width:0.224306"
         d="m 209.99289,70.061819 -24.43867,13.905832 a 0.33050687,0.33050687 0 0 1 -0.49396,-0.287242 v -6.911081 -6.420267 a 0.9843718,0.9843718 0 0 1 0.49219,-0.852478 l 11.82074,-6.82471 a 0.97727523,0.97727523 0 0 1 0.98258,0.0031 l 11.64069,6.818543 a 0.32812388,0.32812388 0 0 1 -0.004,0.568317 z" />
      <path
         id="path82-7-8-2-5-02-90"
         style="font-variation-settings:'wght' 700;fill:#000000;fill-rule:evenodd;stroke:none;stroke-width:0.224306"
         d="m 202.26285,76.568146 24.43868,-13.905844 c 0.21854,-0.124426 0.4895,0.03578 0.48597,0.287198 v 5.397549 c -0.005,0.378834 2e-5,0.766517 0,1.145383 v 7.075714 c 0,0.351328 -0.27258,0.547444 -0.57795,0.721194 l -11.72538,6.671845 c -0.30578,0.173725 -0.68101,0.171155 -0.98435,-0.0065 l -11.64059,-6.818506 c -0.21795,-0.127686 -0.21596,-0.443411 0.004,-0.568316 z" />
    </g>
  </g>
</svg>
