<?xml version="1.0" encoding="UTF-8"?>
<!DOCTYPE svg PUBLIC "-//W3C//DTD SVG 1.0//EN" "http://www.w3.org/TR/2001/REC-SVG-20010904/DTD/svg10.dtd">
<!-- Creator: CorelDRAW X8 -->
<svg xmlns="http://www.w3.org/2000/svg" xml:space="preserve" width="1835px" height="528px" version="1.0" style="shape-rendering:geometricPrecision; text-rendering:geometricPrecision; image-rendering:optimizeQuality; fill-rule:evenodd; clip-rule:evenodd"
viewBox="0 0 15377 4423"
 xmlns:xlink="http://www.w3.org/1999/xlink">
 <defs>
  <style type="text/css">
   <![CDATA[
    .str3 {stroke:#14609A;stroke-width:98.9708}
    .str2 {stroke:#2B2A29;stroke-width:29.6912}
    .str0 {stroke:#14609A;stroke-width:29.6912}
    .str1 {stroke:#14609A;stroke-width:19.7942}
    .fil1 {fill:none}
    .fil2 {fill:#14609A;fill-rule:nonzero}
    .fil0 {fill:#14609A;fill-rule:nonzero}
   ]]>
  </style>
 </defs>
 <g id="Capa_x0020_1">
  <metadata id="CorelCorpID_0Corel-Layer"/>
  <g id="_1473964759392">
   <path class="fil0" d="M6498 1633l0 1942 -123 0 0 -1942 123 0z"/>
   <path class="fil0" d="M10173 1632l0 1942 -124 0 0 -1942 124 0z"/>
   <path class="fil0" d="M9064 1865l0 168c-73,-91 -169,-163 -287,-219 -118,-55 -237,-83 -355,-83 -117,0 -229,23 -334,70 -106,47 -199,112 -280,194 -80,82 -144,177 -189,284 -45,107 -67,218 -67,332 0,111 22,217 68,320 45,102 108,193 188,272 84,79 179,143 288,191 108,49 217,73 326,73 74,0 152,-13 234,-38 82,-25 159,-59 231,-104 72,-44 131,-94 177,-150l0 168c-191,159 -403,238 -637,238 -174,0 -338,-44 -492,-133 -153,-88 -276,-208 -368,-359 -92,-151 -137,-313 -137,-487 0,-178 45,-342 135,-493 91,-151 214,-271 367,-360 154,-88 320,-132 498,-132 76,0 152,9 228,28 75,20 148,48 217,85 69,37 132,83 189,135z"/>
   <path class="fil0" d="M12219 2643l808 0c0,88 -5,168 -16,241 -11,73 -30,142 -60,209 -30,67 -71,129 -125,188 -90,97 -199,173 -328,228 -130,55 -262,82 -398,82 -130,0 -255,-26 -374,-77 -120,-52 -225,-123 -316,-214 -92,-90 -164,-195 -216,-313 -52,-118 -77,-243 -77,-372 0,-179 44,-344 134,-497 90,-152 211,-272 364,-361 154,-88 320,-132 500,-132 113,0 220,18 322,54 101,35 195,87 279,154 85,66 162,147 230,239l-100 79c-40,-63 -88,-120 -143,-171 -54,-53 -112,-96 -174,-131 -62,-36 -128,-63 -200,-82 -71,-19 -145,-28 -222,-28 -151,0 -294,40 -429,121 -134,81 -241,188 -321,321 -79,134 -119,276 -119,427 0,153 39,297 118,431 78,134 183,241 317,319 134,79 278,118 434,118 201,0 389,-70 564,-210 53,-46 97,-94 131,-146 34,-52 59,-108 75,-167 16,-59 25,-125 28,-195l-686 0 0 -115z"/>
   <path class="fil0" d="M14987 2961l-833 0 -255 625 -124 0 797 -1962 793 1962 -124 0 -254 -625zm-45 -113l-370 -917 -373 917 743 0z"/>
   <path class="fil0" d="M6582 4034l-19 16c-22,-33 -50,-50 -87,-50 -15,0 -29,3 -41,11 -12,7 -22,17 -29,30 -7,12 -11,26 -11,41 0,19 7,35 20,46 14,11 33,22 57,34l82 42c33,21 49,49 49,86 0,23 -6,44 -19,63 -13,19 -29,34 -50,45 -20,11 -42,16 -65,16 -29,0 -55,-8 -77,-25 -23,-16 -39,-39 -49,-67l24 -11c10,24 23,43 40,57 18,14 39,21 63,21 19,0 36,-5 52,-14 16,-9 29,-21 39,-37 10,-15 15,-32 15,-51 0,-14 -5,-27 -13,-38 -8,-10 -18,-19 -29,-25 -10,-6 -25,-14 -45,-24l-77 -40c-29,-19 -44,-44 -44,-77 0,-21 5,-40 14,-57 9,-16 22,-29 39,-38 17,-9 36,-14 57,-14 21,0 41,6 60,16 19,11 34,26 44,44zm350 205l0 -259 27 0 0 267c0,28 -1,51 -4,68 -3,17 -12,33 -25,49 -14,16 -31,29 -52,37 -20,9 -42,13 -64,13 -22,0 -43,-4 -64,-13 -20,-8 -38,-21 -52,-37 -13,-16 -21,-33 -24,-49 -3,-17 -5,-40 -5,-68l0 -267 27 0 0 259c0,26 2,48 4,64 2,17 8,31 18,44 10,13 25,23 43,31 18,7 36,11 53,11 18,0 36,-4 54,-11 18,-8 32,-18 42,-31 10,-13 16,-27 18,-44 3,-16 4,-38 4,-64zm547 170l-74 -355 -1 0 -149 369 -148 -369 -1 0 -74 355 -26 0 92 -443 157 390 158 -390 92 443 -26 0zm104 -429l0 429 -27 0 0 -429 27 0zm478 0l0 443 -359 -383 0 369 -27 0 0 -435 359 380 0 -374 27 0zm119 0l0 429 -27 0 0 -429 27 0zm309 54l-20 16c-21,-33 -50,-50 -86,-50 -15,0 -29,3 -41,11 -12,7 -22,17 -29,30 -7,12 -11,26 -11,41 0,19 7,35 20,46 13,11 32,22 57,34l82 42c32,21 49,49 49,86 0,23 -7,44 -19,63 -13,19 -29,34 -50,45 -20,11 -42,16 -65,16 -29,0 -55,-8 -77,-25 -23,-16 -39,-39 -49,-67l24 -11c10,24 23,43 40,57 18,14 38,21 63,21 19,0 36,-5 52,-14 16,-9 29,-21 39,-37 10,-15 14,-32 14,-51 0,-14 -4,-27 -12,-38 -8,-10 -18,-19 -29,-25 -10,-6 -25,-14 -45,-24l-77 -40c-29,-19 -44,-44 -44,-77 0,-21 5,-40 14,-57 9,-16 22,-29 39,-38 17,-9 35,-14 57,-14 21,0 41,6 60,16 19,11 34,26 44,44zm186 -29l0 404 -27 0 0 -404 -110 0 0 -25 248 0 0 25 -111 0zm232 201l140 203 -32 0 -139 -203 -14 0 0 203 -27 0 0 -429 53 0c23,0 41,1 56,4 15,2 29,8 42,17 29,21 43,51 43,93 0,24 -5,44 -16,61 -10,17 -24,30 -43,38 -18,8 -40,13 -63,13zm-45 -26l35 0c17,0 31,-1 43,-4 11,-2 22,-7 32,-16 20,-16 30,-39 30,-67 0,-11 -2,-22 -5,-32 -4,-10 -9,-19 -15,-27 -7,-8 -16,-14 -26,-19 -15,-6 -40,-10 -76,-10l-18 0 0 175zm446 -206c39,0 76,10 110,30 34,20 61,47 81,80 20,34 31,71 31,110 0,40 -11,76 -31,110 -20,34 -47,61 -81,81 -34,19 -71,29 -110,29 -39,0 -76,-10 -110,-29 -34,-20 -61,-47 -82,-81 -20,-34 -30,-70 -30,-110 0,-29 6,-57 18,-84 11,-27 27,-51 48,-71 20,-21 44,-36 71,-48 27,-11 55,-17 85,-17zm0 26c-35,0 -67,9 -97,26 -30,18 -54,41 -71,71 -18,30 -27,63 -27,97 0,35 9,67 27,97 17,30 41,54 71,71 30,18 62,27 97,27 34,0 67,-9 97,-27 30,-18 53,-41 71,-71 18,-30 26,-62 26,-97 0,-26 -5,-51 -15,-74 -10,-24 -24,-45 -42,-63 -18,-18 -39,-32 -62,-42 -24,-10 -49,-15 -75,-15zm505 34l-19 16c-21,-33 -50,-50 -87,-50 -15,0 -29,3 -41,11 -12,7 -22,17 -29,30 -7,12 -11,26 -11,41 0,19 7,35 20,46 14,11 33,22 58,34l81 42c33,21 49,49 49,86 0,23 -6,44 -19,63 -12,19 -29,34 -50,45 -20,11 -42,16 -65,16 -29,0 -55,-8 -77,-25 -22,-16 -38,-39 -49,-67l24 -11c10,24 23,43 41,57 17,14 38,21 62,21 19,0 36,-5 52,-14 17,-9 30,-21 39,-37 10,-15 15,-32 15,-51 0,-14 -4,-27 -13,-38 -8,-10 -18,-19 -28,-25 -11,-6 -26,-14 -45,-24l-78 -40c-29,-19 -44,-44 -44,-77 0,-21 5,-40 14,-57 10,-16 23,-29 39,-38 17,-9 36,-14 57,-14 21,0 42,6 60,16 19,11 34,26 44,44zm294 171l0 204 -27 0 0 -429 75 0c21,0 38,1 53,5 14,3 28,10 40,20 25,22 38,51 38,88 0,16 -3,32 -9,47 -6,15 -15,28 -26,38 -21,18 -53,27 -96,27l-48 0zm0 -26l50 0c15,0 29,-1 41,-4 12,-3 23,-10 33,-19 19,-17 28,-38 28,-64 0,-14 -3,-27 -8,-39 -6,-13 -14,-23 -24,-31 -10,-7 -20,-11 -32,-14 -12,-2 -26,-3 -43,-3l-45 0 0 174zm470 89l-187 0 -58 141 -28 0 180 -443 178 443 -28 0 -57 -141zm-10 -26l-83 -207 -84 207 167 0zm216 -36l139 203 -31 0 -139 -203 -14 0 0 203 -27 0 0 -429 53 0c23,0 41,1 56,4 15,2 29,8 42,17 29,21 43,51 43,93 0,24 -5,44 -16,61 -10,17 -24,30 -43,38 -18,8 -40,13 -63,13zm-45 -26l35 0c17,0 31,-1 43,-4 11,-2 22,-7 32,-16 20,-16 30,-39 30,-67 0,-11 -2,-22 -5,-32 -4,-10 -9,-19 -16,-27 -6,-8 -15,-14 -25,-19 -15,-6 -40,-10 -76,-10l-18 0 0 175zm479 88l-187 0 -58 141 -27 0 179 -443 178 443 -28 0 -57 -141zm-10 -26l-83 -207 -84 207 167 0zm347 -262l0 403 109 0 0 26 -136 0 0 -429 27 0zm388 288l-188 0 -57 141 -28 0 179 -443 179 443 -28 0 -57 -141zm-10 -26l-84 -207 -84 207 168 0zm171 -42l0 183 65 0c20,0 37,-1 50,-3 13,-2 26,-6 37,-13 28,-19 42,-45 42,-77 0,-16 -4,-31 -11,-45 -8,-14 -19,-25 -33,-31 -18,-10 -48,-14 -90,-14l-60 0zm82 209l-109 0 0 -429 85 0c20,0 37,1 50,5 14,3 27,10 39,20 23,21 35,50 35,89 0,39 -16,68 -49,87 17,4 33,11 46,21 14,10 24,22 31,38 8,15 11,31 11,49 0,37 -13,66 -39,89 -14,12 -29,20 -45,24 -15,4 -34,7 -55,7zm-82 -404l0 169 47 0 14 0c13,0 25,-1 34,-3 10,-2 19,-6 28,-13 12,-8 21,-18 25,-29 5,-10 7,-24 7,-39 0,-15 -3,-29 -9,-41 -5,-13 -14,-23 -26,-30 -10,-6 -20,-10 -31,-11 -11,-2 -25,-3 -42,-3l-47 0zm489 -31c39,0 76,10 110,30 34,20 61,47 81,80 21,34 31,71 31,110 0,40 -10,76 -31,110 -20,34 -47,61 -81,81 -34,19 -71,29 -110,29 -39,0 -76,-10 -110,-29 -34,-20 -61,-47 -81,-81 -21,-34 -31,-70 -31,-110 0,-29 6,-57 18,-84 11,-27 27,-51 48,-71 21,-21 44,-36 71,-48 27,-11 55,-17 85,-17zm0 26c-35,0 -67,9 -97,26 -30,18 -53,41 -71,71 -18,30 -26,63 -26,97 0,35 8,67 26,97 18,30 41,54 71,71 30,18 62,27 97,27 35,0 67,-9 97,-27 30,-18 54,-41 71,-71 18,-30 26,-62 26,-97 0,-26 -5,-51 -15,-74 -10,-24 -24,-45 -42,-63 -18,-18 -39,-32 -62,-42 -24,-10 -49,-15 -75,-15zm360 206l139 203 -31 0 -139 -203 -14 0 0 203 -27 0 0 -429 53 0c23,0 41,1 56,4 15,2 29,8 42,17 29,21 43,51 43,93 0,24 -5,44 -16,61 -10,17 -24,30 -43,38 -18,8 -40,13 -63,13zm-45 -26l35 0c17,0 31,-1 43,-4 11,-2 22,-7 32,-16 20,-16 30,-39 30,-67 0,-11 -2,-22 -5,-32 -4,-10 -9,-19 -16,-27 -6,-8 -15,-14 -25,-19 -15,-6 -40,-10 -76,-10l-18 0 0 175zm479 88l-187 0 -58 141 -27 0 179 -443 178 443 -27 0 -58 -141zm-10 -26l-83 -207 -84 207 167 0zm239 -237l0 404 -27 0 0 -404 -110 0 0 -25 248 0 0 25 -111 0zm356 -31c40,0 76,10 110,30 35,20 62,47 82,80 20,34 30,71 30,110 0,40 -10,76 -30,110 -20,34 -47,61 -82,81 -34,19 -70,29 -110,29 -39,0 -76,-10 -110,-29 -34,-20 -61,-47 -81,-81 -20,-34 -30,-70 -30,-110 0,-29 5,-57 17,-84 12,-27 28,-51 48,-71 21,-21 45,-36 72,-48 27,-11 55,-17 84,-17zm0 26c-34,0 -67,9 -97,26 -29,18 -53,41 -71,71 -17,30 -26,63 -26,97 0,35 9,67 26,97 18,30 42,54 71,71 30,18 63,27 97,27 35,0 67,-9 97,-27 30,-18 54,-41 71,-71 18,-30 27,-62 27,-97 0,-26 -5,-51 -16,-74 -10,-24 -24,-45 -42,-63 -18,-18 -38,-32 -62,-42 -24,-10 -49,-15 -75,-15zm360 206l140 203 -31 0 -140 -203 -13 0 0 203 -28 0 0 -429 54 0c22,0 41,1 56,4 15,2 28,8 41,17 29,21 43,51 43,93 0,24 -5,44 -15,61 -11,17 -25,30 -44,38 -18,8 -39,13 -63,13zm-44 -26l34 0c17,0 31,-1 43,-4 12,-2 22,-7 32,-16 20,-16 30,-39 30,-67 0,-11 -2,-22 -5,-32 -3,-10 -9,-19 -15,-27 -7,-8 -15,-14 -25,-19 -15,-6 -41,-10 -77,-10l-17 0 0 175zm276 -200l0 429 -27 0 0 -429 27 0zm288 -6c39,0 76,10 110,30 34,20 61,47 82,80 20,34 30,71 30,110 0,40 -10,76 -30,110 -21,34 -48,61 -82,81 -34,19 -71,29 -110,29 -39,0 -76,-10 -110,-29 -34,-20 -61,-47 -81,-81 -20,-34 -30,-70 -30,-110 0,-29 5,-57 17,-84 11,-27 27,-51 48,-71 21,-21 45,-36 71,-48 27,-11 56,-17 85,-17zm0 26c-35,0 -67,9 -97,26 -30,18 -53,41 -71,71 -17,30 -26,63 -26,97 0,35 9,67 26,97 18,30 41,54 71,71 30,18 62,27 97,27 35,0 67,-9 97,-27 30,-18 54,-41 71,-71 18,-30 27,-62 27,-97 0,-26 -5,-51 -16,-74 -10,-24 -24,-45 -42,-63 -18,-18 -39,-32 -62,-42 -24,-10 -49,-15 -75,-15zm505 34l-19 16c-21,-33 -50,-50 -87,-50 -15,0 -28,3 -41,11 -12,7 -22,17 -29,30 -7,12 -10,26 -10,41 0,19 6,35 20,46 13,11 32,22 57,34l82 42c32,21 48,49 48,86 0,23 -6,44 -19,63 -12,19 -29,34 -49,45 -21,11 -43,16 -66,16 -29,0 -54,-8 -77,-25 -22,-16 -38,-39 -48,-67l23 -11c10,24 24,43 41,57 17,14 38,21 63,21 18,0 36,-5 52,-14 16,-9 29,-21 38,-37 10,-15 15,-32 15,-51 0,-14 -4,-27 -13,-38 -8,-10 -17,-19 -28,-25 -11,-6 -26,-14 -45,-24l-77 -40c-30,-19 -44,-44 -44,-77 0,-21 4,-40 14,-57 9,-16 22,-29 38,-38 17,-9 36,-14 57,-14 22,0 42,6 61,16 19,11 33,26 43,44z"/>
   <path class="fil1 str0" d="M15 15l5185 0 0 4362 -5185 0 0 -4362z"/>
   <path class="fil1 str0" d="M2612 79c248,0 449,200 449,445 0,246 -201,446 -449,446 -248,0 -450,-200 -450,-446 0,-245 202,-445 450,-445z"/>
   <path class="fil2" d="M2835 273l0 510 -415 -441 0 424 -31 0 0 -500 414 437 0 -430 32 0z"/>
   <path class="fil1 str0" d="M584 1101l459 1041 -921 0 462 -1041z"/>
   <path class="fil1 str0" d="M4627 1115l458 1041 -921 0 463 -1041z"/>
   <path class="fil1 str0" d="M4606 1085l-3990 -16 3990 16z"/>
   <path class="fil1 str0" d="M2217 306l-1628 776 1628 -776z"/>
   <path class="fil1 str0" d="M2985 280l1644 816 -1644 -816z"/>
   <path class="fil1 str1" d="M2608 980l-18 0 0 93 18 0 0 -93z"/>
   <path class="fil1 str0" d="M2158 1085l741 0 293 1 -293 264 0 2200 429 408 -429 -1 -741 0 -339 0 339 -365 0 -2507z"/>
   <path class="fil1 str0" d="M2732 1659l167 0 0 3 -167 0 0 -3z"/>
   <path class="fil1 str0" d="M2732 1838l167 0 0 2 -167 0 0 -2z"/>
   <path class="fil1 str0" d="M2732 1986l167 0 0 2 -167 0 0 -2z"/>
   <path class="fil1 str0" d="M2732 2164l167 0 0 2 -167 0 0 -2z"/>
   <path class="fil1 str0" d="M2732 2332l167 0 0 3 -167 0 0 -3z"/>
   <path class="fil1 str0" d="M2732 2501l167 0 0 2 -167 0 0 -2z"/>
   <path class="fil1 str0" d="M2732 2709l167 0 0 2 -167 0 0 -2z"/>
   <path class="fil1 str0" d="M2732 2887l167 0 0 2 -167 0 0 -2z"/>
   <path class="fil1 str2" d="M2732 3045l167 0 0 2 -167 0 0 -2z"/>
   <path class="fil1 str0" d="M2732 3233l167 0 0 2 -167 0 0 -2z"/>
   <path class="fil1 str0" d="M2732 3045l167 0 0 2 -167 0 0 -2z"/>
   <path class="fil1 str0" d="M2802 1749l97 0 0 2 -97 0 0 -2z"/>
   <path class="fil1 str0" d="M2802 1907l97 0 0 2 -97 0 0 -2z"/>
   <path class="fil1 str0" d="M2802 2075l97 0 0 2 -97 0 0 -2z"/>
   <path class="fil1 str0" d="M2802 2243l97 0 0 3 -97 0 0 -3z"/>
   <path class="fil1 str0" d="M2802 2422l97 0 0 2 -97 0 0 -2z"/>
   <path class="fil1 str0" d="M2802 2619l97 0 0 3 -97 0 0 -3z"/>
   <path class="fil1 str0" d="M2802 2798l97 0 0 2 -97 0 0 -2z"/>
   <path class="fil1 str0" d="M2802 2966l97 0 0 2 -97 0 0 -2z"/>
   <path class="fil1 str0" d="M2802 3164l97 0 0 2 -97 0 0 -2z"/>
   <path class="fil1 str3" d="M3717 4195l-2253 0c-1,0 -2,1 -2,2l0 0c0,1 1,2 2,2l2253 0c2,0 3,-1 3,-2l0 0c0,-1 -1,-2 -3,-2z"/>
   <path class="fil1 str3" d="M1495 4137l603 -1395 0 -18 -610 1413 7 0z"/>
   <path class="fil1 str3" d="M3683 4134l-733 -1515 0 -5 737 1520 -4 0z"/>
  </g>
 </g>
</svg>
