<?xml version="1.0" encoding="utf-8"?>
<!-- Generator: Adobe Illustrator 24.0.0, SVG Export Plug-In . SVG Version: 6.00 Build 0)  -->
<svg version="1.0" id="Capa_1" xmlns="http://www.w3.org/2000/svg" xmlns:xlink="http://www.w3.org/1999/xlink" x="0px" y="0px"
	 width="222.3px" height="26.6px" viewBox="0 0 222.3 26.6" enable-background="new 0 0 222.3 26.6" xml:space="preserve">
<g>
	<path fill="#333333" d="M86.3,14.4c-0.7-0.1-1.3-0.1-1.9-0.2c0.2-3.6-0.9-6.7-3.6-9.2c-2.1-2-4.7-3-7.6-3.1
		C67.3,2,62.4,6.4,61.9,12.2c-0.2,2.1,0.1,4.2,1.1,6.1c0.9,1.9,2.3,3.5,4.2,4.6c1.8,1.1,3.8,1.7,6,1.7c0,0.7,0,1.3,0,1.9
		c-0.6,0.2-3.1-0.2-4.7-0.8c-2.8-1.1-5-2.9-6.6-5.5c-3.2-5.1-2.4-11.8,1.7-16.1c4.2-4.4,10.8-5.4,16.1-2.4
		C85.1,4.8,86.8,10.6,86.3,14.4z"/>
	<path fill="#AA66CC" d="M78.7,20.1c-0.1,0.1-0.2,0.2-0.3,0.2c-0.4,0.4-0.8,0.8-1.2,1.2c-0.4,0.4-0.8,0.3-1-0.2c-1-3-2-6-3-9
		c0-0.1-0.1-0.2-0.1-0.3c0-0.4,0.3-0.6,0.6-0.6c0.1,0,0.2,0.1,0.3,0.1c3,1,5.9,2,8.9,3c0,0,0.1,0,0.1,0c0.5,0.2,0.6,0.6,0.2,1
		c-0.4,0.5-0.9,0.9-1.3,1.3c0,0-0.1,0.1-0.1,0.2c0.1,0.1,0.2,0.2,0.2,0.3c0.9,0.9,1.8,1.8,2.7,2.7c0.1,0.1,0.1,0.1,0.2,0.2
		c0.2,0.3,0.2,0.5,0,0.8c-0.3,0.3-0.6,0.6-0.8,0.8c-0.5,0.5-0.9,0.9-1.4,1.4c-0.3,0.3-0.7,0.3-1,0c-0.9-0.9-1.8-1.8-2.8-2.8
		C78.9,20.3,78.8,20.2,78.7,20.1z"/>
	<path fill="#AA66CC" d="M68.5,12.4c-0.5,0-1,0-1.6,0c-0.3,0-0.5-0.2-0.6-0.5c0-0.3,0.1-0.5,0.4-0.6c0.1,0,0.2,0,0.3,0
		c1,0,1.9,0,2.9,0c0.1,0,0.2,0,0.3,0c0.3,0.1,0.4,0.3,0.4,0.5c0,0.2-0.2,0.4-0.4,0.5c-0.1,0-0.2,0-0.3,0
		C69.5,12.4,69,12.4,68.5,12.4C68.5,12.4,68.5,12.4,68.5,12.4z"/>
	<path fill="#AA66CC" d="M71.7,9.5c0,0.4-0.4,0.7-0.8,0.5c-0.1,0-0.1-0.1-0.2-0.2c-0.7-0.7-1.4-1.4-2.1-2.1
		c-0.1-0.1-0.2-0.3-0.2-0.4c0-0.2,0.1-0.4,0.2-0.5c0.2-0.1,0.4-0.1,0.6,0c0.1,0,0.1,0.1,0.2,0.2c0.7,0.7,1.4,1.4,2.1,2.1
		C71.6,9.2,71.7,9.3,71.7,9.5z"/>
	<path fill="#AA66CC" d="M78.7,7.3c0,0.1-0.1,0.2-0.2,0.3c-0.7,0.8-1.5,1.5-2.3,2.3c-0.2,0.2-0.6,0.2-0.8,0c-0.2-0.2-0.2-0.5,0-0.8
		c0.8-0.8,1.5-1.5,2.3-2.3c0.2-0.2,0.4-0.2,0.6-0.1C78.6,6.8,78.7,7,78.7,7.3z"/>
	<path fill="#AA66CC" d="M71.7,14.2c0,0.1-0.1,0.2-0.2,0.3c-0.8,0.8-1.5,1.5-2.3,2.3c-0.2,0.2-0.6,0.2-0.8,0c-0.2-0.2-0.2-0.5,0-0.7
		c0.8-0.8,1.5-1.5,2.3-2.3c0.2-0.2,0.4-0.2,0.6-0.1C71.6,13.8,71.7,14,71.7,14.2z"/>
	<path fill="#AA66CC" d="M74,6.9c0,0.5,0,1.1,0,1.6c0,0.3-0.1,0.5-0.4,0.5C73.4,9.1,73,9,73,8.6c0-0.1,0-0.3,0-0.4
		c0-0.9,0-1.8,0-2.7c0-0.1,0-0.2,0-0.3c0-0.3,0.2-0.5,0.5-0.5c0.3,0,0.5,0.2,0.5,0.5c0,0.5,0,0.9,0,1.4C74,6.7,74,6.8,74,6.9
		C74,6.9,74,6.9,74,6.9z"/>
	<g>
		<path fill="#333333" d="M91.6,25.3c-0.6,0-1.2,0-1.8,0c-0.1-0.2-0.1-17.8,0-18.4c0.3,0,0.6,0,0.8,0c0.3,0,0.5,0,0.9,0
			c0,0.8,0,1.7,0,2.5c0,0,0,0,0.1,0c0-0.1,0.1-0.1,0.1-0.2c1-1.4,2.4-2.2,4.2-2.4c1.2-0.1,2.3,0,3.4,0.4c1.8,0.7,3.1,2,3.8,3.8
			c0.6,1.7,0.6,3.4,0,5.1c-0.8,2.4-2.6,3.8-5,4.2c-1.2,0.2-2.4,0.1-3.5-0.3c-1.1-0.4-1.9-1-2.6-1.9c-0.1-0.1-0.1-0.2-0.2-0.3
			c-0.1,0.3,0,0.6,0,0.8c0,0.3,0,0.6,0,0.8c0,0.3,0,0.5,0,0.8c0,0.3,0,0.6,0,0.8c0,0.3,0,0.6,0,0.8c0,0.3,0,0.6,0,0.8
			c0,0.3,0,0.5,0,0.8c0,0.3,0,0.6,0,0.8C91.6,24.7,91.6,25,91.6,25.3z M101.6,13.6c0-0.1,0-0.3,0-0.4c-0.1-2.6-2-4.6-4.5-4.8
			c-2.1-0.2-4,0.8-5,2.7c-0.5,1.1-0.7,2.3-0.5,3.5c0.3,1.8,1.2,3.2,2.9,3.9c0.8,0.3,1.6,0.4,2.5,0.4c1.7-0.2,3-1,3.9-2.5
			C101.4,15.5,101.6,14.6,101.6,13.6z"/>
		<path fill="#333333" d="M198.3,15.3c0.3,0.9,0.8,1.7,1.4,2.2c0.8,0.7,1.8,1.1,2.9,1.2c1,0.1,2,0,3-0.4c0.6-0.3,1.2-0.6,1.7-1.1
			c0.1-0.1,0.1-0.1,0.2-0.3c0.4,0.4,0.7,0.8,1,1.2c-0.1,0.1-0.1,0.2-0.2,0.2c-0.9,1-2,1.5-3.3,1.8c-1.6,0.3-3.2,0.2-4.7-0.4
			c-2.4-1-3.7-2.9-4-5.5c-0.2-1.5,0.1-2.9,0.7-4.2c1.1-2,2.8-3.1,5-3.4c1.2-0.1,2.4,0,3.5,0.5c2.1,0.9,3.4,2.6,3.8,4.9
			c0.1,0.3,0.1,0.7,0.1,1.1C205.7,13.9,202.1,14.6,198.3,15.3z M207.6,12.2c-0.3-1.8-1.6-3.3-3.3-3.7c-0.6-0.1-1.1-0.2-1.7-0.1
			c-1.6,0.1-2.8,0.8-3.7,2.2c-0.5,0.8-0.8,1.7-0.8,2.6c0,0.3,0,0.6,0,0.9C201.3,13.4,204.4,12.8,207.6,12.2z"/>
		<path fill="#333333" d="M19.4,17.9c0.4,0.5,0.7,0.8,1.1,1.2c-0.1,0.1-0.2,0.2-0.3,0.3c-0.9,0.9-1.9,1.4-3.1,1.7
			c-1.9,0.4-3.7,0.3-5.4-0.6c-2.1-1.1-3.2-2.9-3.5-5.2c-0.1-1.3,0-2.6,0.6-3.8c1-2.1,2.6-3.4,4.9-3.7c1.6-0.2,3.2,0,4.6,0.8
			c1.7,1,2.6,2.6,3,4.5c0.1,0.3,0.1,0.7,0.1,1c-3.7,0.7-7.4,1.4-11.1,2.2c0.5,1.5,1.4,2.6,2.9,3.1c1.5,0.6,3,0.5,4.5-0.1
			c0.6-0.2,1.1-0.6,1.5-1C19.3,18.1,19.3,18,19.4,17.9z M10,14.9c3.2-0.6,6.3-1.2,9.5-1.8c-0.2-1.3-0.9-2.3-1.9-3.1
			c-1-0.7-2.1-0.9-3.3-0.8C11.4,9.5,9.7,12,10,14.9z"/>
		<path fill="#333333" d="M113,20.5c-2.1,0-3.8-0.6-5.2-2c-1.1-1.1-1.7-2.5-1.9-4.1c-0.1-1.3,0-2.6,0.6-3.8c1-2.1,2.6-3.3,4.9-3.7
			c1.6-0.3,3.2-0.1,4.7,0.6c2,1.1,3.2,2.8,3.5,5.1c0.2,1.4,0,2.9-0.6,4.2c-1,2-2.6,3.2-4.8,3.6C113.6,20.4,113.2,20.4,113,20.5z
			 M117.7,13.6c0-0.4,0-0.7-0.1-1.1c-0.3-1.6-1-2.9-2.5-3.6c-1-0.5-2-0.7-3-0.5c-2,0.3-3.4,1.3-4.1,3.2c-0.3,0.9-0.4,1.9-0.3,2.9
			c0.3,1.7,1.1,3,2.6,3.8c0.9,0.5,1.8,0.6,2.8,0.5c1.8-0.2,3.2-1,4-2.6C117.6,15.4,117.7,14.5,117.7,13.6z"/>
		<path fill="#333333" d="M169.8,20.5c-2.3,0-4.1-0.7-5.4-2.3c-1-1.1-1.5-2.4-1.6-3.8c-0.1-1.3,0-2.6,0.6-3.7c1-2.1,2.6-3.3,4.9-3.7
			c1.7-0.3,3.3-0.1,4.8,0.7c2,1.1,3.1,2.8,3.4,5c0.2,1.4,0,2.9-0.6,4.2c-1,2-2.6,3.2-4.8,3.6C170.5,20.4,170.1,20.4,169.8,20.5z
			 M174.6,13.6c0-0.4,0-0.7-0.1-1.1c-0.3-1.6-1-2.9-2.5-3.6c-1-0.5-2-0.7-3-0.5c-2,0.2-3.4,1.3-4.1,3.2c-0.3,0.9-0.4,1.9-0.3,2.9
			c0.3,1.7,1.1,3,2.6,3.8c0.9,0.5,1.8,0.6,2.8,0.5c1.8-0.2,3.2-1,4-2.6C174.5,15.4,174.6,14.5,174.6,13.6z"/>
		<path fill="#333333" d="M180.2,6.9c0.6,0,1.1,0,1.7,0c0,0.8,0,1.5,0,2.4c0.1-0.1,0.1-0.1,0.2-0.1c0.8-1.2,2-1.9,3.4-2.2
			c1.2-0.3,2.3-0.3,3.5,0.1c2,0.6,3.2,2,3.6,4c0.1,0.5,0.1,1.1,0.1,1.6c0,2.4,0,4.9,0,7.3c0,0.1,0,0.3,0,0.5c-0.6,0-1.2,0-1.8,0
			c0-0.2,0-0.3,0-0.4c0-2.4,0-4.9,0-7.3c0-0.5,0-0.9-0.1-1.4c-0.3-1.5-1.3-2.5-2.8-2.8c-0.9-0.2-1.8-0.1-2.7,0.1
			c-1.7,0.5-2.6,1.7-2.9,3.4c-0.1,0.5-0.1,1.1-0.1,1.6c0,2.1,0,4.2,0,6.3c0,0.1,0,0.3,0,0.4c-0.6,0-1.2,0-1.8,0
			C180.2,15.8,180.2,11.4,180.2,6.9z"/>
		<path fill="#333333" d="M221.9,8c-0.3,0.5-0.5,1-0.8,1.4c-0.1-0.1-0.2-0.1-0.2-0.1c-1-0.6-2.1-0.9-3.2-1c-0.7,0-1.4,0-2,0.1
			c-0.5,0.1-0.9,0.3-1.3,0.6c-0.6,0.5-0.8,1.2-0.6,1.9c0.1,0.3,0.2,0.6,0.5,0.8c0.4,0.3,0.8,0.5,1.3,0.7c0.9,0.2,1.7,0.4,2.6,0.6
			c0.7,0.1,1.3,0.3,1.9,0.5c0.4,0.1,0.8,0.3,1.2,0.6c0.7,0.5,1.1,1.2,1.1,2.1c0.1,1.4-0.4,2.5-1.6,3.3c-0.7,0.4-1.4,0.7-2.2,0.8
			c-2,0.3-3.9,0.1-5.8-0.7c-0.4-0.2-0.8-0.4-1.2-0.6c-0.1-0.1-0.2-0.1-0.3-0.2c0.3-0.5,0.5-0.9,0.8-1.4c0.1,0,0.1,0,0.2,0.1
			c1.5,1.1,3.2,1.5,5.1,1.4c0.5,0,1.1-0.1,1.6-0.2c0.2-0.1,0.5-0.2,0.7-0.3c0.7-0.4,1.1-1.2,0.9-2c-0.1-0.3-0.2-0.6-0.5-0.8
			c-0.3-0.3-0.7-0.5-1.2-0.6c-0.7-0.2-1.5-0.3-2.2-0.5c-0.8-0.2-1.6-0.4-2.3-0.6c-0.6-0.2-1.2-0.5-1.7-1c-0.5-0.5-0.8-1.1-0.8-1.8
			c-0.1-1.5,0.4-2.6,1.6-3.4c0.7-0.5,1.6-0.7,2.4-0.8c1.6-0.2,3.2,0,4.7,0.5C221,7.5,221.4,7.7,221.9,8z"/>
		<path fill="#333333" d="M132,8c-0.3,0.5-0.5,1-0.8,1.4c-0.1,0-0.2-0.1-0.2-0.1c-1-0.6-2.1-0.9-3.3-1c-0.7,0-1.3,0-2,0.1
			c-0.5,0.1-1,0.3-1.4,0.7c-0.5,0.5-0.7,1.1-0.5,1.9c0.1,0.3,0.2,0.6,0.5,0.8c0.4,0.3,0.8,0.5,1.3,0.7c0.9,0.2,1.7,0.4,2.6,0.6
			c0.7,0.1,1.3,0.3,1.9,0.5c0.3,0.1,0.6,0.2,0.8,0.4c1,0.5,1.5,1.4,1.6,2.5c0.1,1.3-0.4,2.3-1.5,3.1c-0.5,0.4-1.1,0.6-1.7,0.8
			c-2.4,0.5-4.7,0.3-6.9-0.8c-0.3-0.2-0.7-0.4-1-0.6c0.3-0.5,0.5-0.9,0.8-1.4c0.1,0,0.1,0,0.1,0.1c1.6,1.1,3.3,1.5,5.2,1.4
			c0.5,0,1-0.1,1.5-0.2c0.3-0.1,0.6-0.2,0.8-0.4c0.6-0.4,0.9-1.1,0.8-1.8c0-0.4-0.2-0.7-0.6-1c-0.4-0.3-0.8-0.5-1.3-0.6
			c-0.8-0.2-1.6-0.3-2.4-0.5c-0.7-0.1-1.3-0.3-2-0.5c-0.6-0.2-1.2-0.5-1.7-1c-0.5-0.4-0.7-1-0.8-1.6c-0.3-1.6,0.3-2.9,1.7-3.7
			c0.7-0.5,1.5-0.7,2.4-0.8c1.6-0.2,3.2,0,4.7,0.5C131.2,7.5,131.6,7.7,132,8z"/>
		<path fill="#333333" d="M33.8,8.9c-0.3,0.5-0.5,1-0.8,1.4c-0.1,0-0.2-0.1-0.2-0.1c-1.3-0.8-2.7-1.1-4.2-1c-0.5,0-1,0.1-1.4,0.2
			c-0.4,0.1-0.8,0.4-1.1,0.7c-0.7,0.7-0.8,2,0.3,2.7c0.4,0.2,0.7,0.4,1.2,0.5c0.9,0.2,1.8,0.4,2.7,0.6c0.6,0.1,1.1,0.3,1.7,0.4
			c0.6,0.2,1.1,0.5,1.6,0.9c0.6,0.5,0.8,1.3,0.9,2c0.1,1.3-0.5,2.4-1.6,3.1c-0.7,0.5-1.6,0.7-2.5,0.9c-1.9,0.2-3.7,0.1-5.5-0.7
			c-0.5-0.2-0.9-0.5-1.4-0.8c-0.1,0-0.1-0.1-0.2-0.1c0.3-0.5,0.5-0.9,0.8-1.4c0.1,0,0.1,0.1,0.2,0.1c1.2,0.9,2.6,1.3,4.1,1.4
			c0.8,0.1,1.6,0,2.4-0.2c0.4-0.1,0.8-0.3,1.1-0.5c0.6-0.5,0.8-1.3,0.6-2c-0.1-0.3-0.3-0.5-0.5-0.7c-0.3-0.3-0.7-0.5-1.1-0.5
			c-0.8-0.2-1.5-0.3-2.3-0.5c-0.8-0.2-1.5-0.4-2.2-0.5c-0.5-0.1-1-0.4-1.4-0.8c-0.6-0.5-0.9-1.2-1-2c-0.1-1.5,0.5-2.7,1.7-3.5
			c0.8-0.5,1.7-0.7,2.6-0.8c1.6-0.1,3.2,0.1,4.7,0.7c0.3,0.1,0.5,0.3,0.8,0.4C33.6,8.8,33.7,8.8,33.8,8.9z"/>
		<path fill="#333333" d="M45.7,19.6c0.3-0.5,0.5-0.9,0.8-1.4c0.1,0,0.1,0,0.1,0.1c1.9,1.3,4,1.7,6.3,1.3c0.4-0.1,0.8-0.2,1.2-0.5
			c0.6-0.5,0.9-1.2,0.7-2c-0.1-0.4-0.3-0.6-0.6-0.8c-0.3-0.3-0.7-0.4-1.1-0.5c-0.8-0.2-1.5-0.3-2.3-0.5c-0.8-0.2-1.5-0.4-2.2-0.6
			c-0.5-0.1-1-0.4-1.4-0.8c-0.8-0.7-1-1.6-1-2.6c0.1-1.2,0.7-2.1,1.7-2.8C48.5,8,49.3,7.8,50,7.7c1.8-0.3,3.6-0.1,5.3,0.6
			c0.2,0.1,0.5,0.2,0.7,0.3c0.1,0.1,0.2,0.1,0.3,0.2c-0.3,0.5-0.5,1-0.8,1.4c-0.6-0.3-1.1-0.5-1.7-0.7c-1.3-0.4-2.6-0.5-4-0.2
			C49.4,9.5,49,9.7,48.6,10c-0.5,0.5-0.7,1.1-0.6,1.7c0.1,0.4,0.2,0.7,0.5,0.9c0.4,0.3,0.8,0.5,1.2,0.6c0.8,0.2,1.7,0.4,2.5,0.6
			c0.7,0.2,1.4,0.3,2,0.5c0.7,0.2,1.2,0.5,1.7,1c0.3,0.3,0.5,0.6,0.6,1c0.4,1.5,0.1,3-1.4,4c-0.8,0.5-1.6,0.8-2.5,0.9
			c-1.9,0.3-3.8,0.1-5.6-0.7C46.6,20.3,46.2,20,45.7,19.6z"/>
		<path fill="#333333" d="M153.6,9.4c-0.5,0.3-0.9,0.6-1.3,0.9c-0.1-0.1-0.1-0.2-0.2-0.2c-0.8-1-1.8-1.5-3.1-1.7
			c-0.8-0.1-1.7,0-2.5,0.3c-1.9,0.7-2.9,2.1-3.2,4c-0.1,0.9-0.1,1.8,0.2,2.7c0.6,1.9,2,3,3.9,3.4c0.9,0.2,1.8,0.1,2.7-0.2
			c0.8-0.3,1.5-0.7,2-1.4c0.1-0.1,0.1-0.1,0.2-0.2c0,0,0,0,0.1,0c0.4,0.3,0.9,0.6,1.3,0.9c-0.1,0.1-0.1,0.2-0.1,0.2
			c-0.7,1-1.6,1.7-2.7,2c-1.9,0.6-3.8,0.6-5.6-0.3c-2.1-0.9-3.3-2.6-3.7-4.8c-0.3-1.4-0.2-2.8,0.4-4.1c0.9-2.2,2.6-3.6,5-4
			c1.3-0.3,2.7-0.2,4,0.3c1.1,0.4,1.9,1,2.6,1.9C153.5,9.2,153.5,9.3,153.6,9.4z"/>
		<path fill="#333333" d="M0,4.8c0.6,0,1.2,0,1.8,0c0,1,0,1.9,0,2.9c1.4,0,2.7,0,4.1,0c0,0.5,0,1,0,1.5c-0.4,0-0.9,0-1.3,0
			c-0.4,0-0.9,0-1.3,0c-0.4,0-0.9,0-1.4,0c0,0.2,0,0.3,0,0.4c0,2.5,0,5.1,0,7.6c0,0.3,0,0.7,0.1,1c0.2,0.9,0.9,1.4,1.8,1.5
			c0.9,0.1,1.7,0,2.3-0.6c0,0,0,0,0.1,0c0.2,0.4,0.4,0.8,0.6,1.2c-0.2,0.3-0.5,0.4-0.8,0.6c-0.9,0.4-1.8,0.5-2.7,0.4
			c-0.2,0-0.4-0.1-0.6-0.1c-1.4-0.4-2.2-1.3-2.5-2.7C0,18.1,0,17.6,0,17.2c0-4,0-8,0-12C0,5,0,4.9,0,4.8z"/>
		<path fill="#333333" d="M39.3,9.3c0,0.2,0,0.3,0,0.4c0,2.5,0,5,0,7.6c0,0.3,0,0.7,0.1,1c0.2,0.9,0.9,1.4,1.7,1.5
			c0.9,0.1,1.7,0,2.3-0.6c0,0,0,0,0.1,0c0.2,0.4,0.4,0.8,0.6,1.3c-0.2,0.1-0.3,0.3-0.5,0.4c-0.5,0.3-1.1,0.5-1.7,0.5
			c-0.7,0.1-1.4,0.1-2.1-0.1c-1.3-0.4-2.1-1.3-2.4-2.7c-0.1-0.4-0.1-0.9-0.1-1.3c0-4,0-8,0-12c0-0.1,0-0.2,0-0.4c0.6,0,1.2,0,1.8,0
			c0,1,0,1.9,0,2.9c1.4,0,2.7,0,4.1,0c0,0.3,0,0.5,0,0.8c0,0.2,0,0.5,0,0.8c-0.3,0.1-0.7,0-1,0c-0.3,0-0.7,0-1,0c-0.3,0-0.7,0-1,0
			C40,9.3,39.7,9.3,39.3,9.3z"/>
		<path fill="#333333" d="M137.6,20.3c-0.6,0-1.2,0-1.7,0c-0.1-0.2-0.1-12.9,0-13.4c0.6,0,1.2,0,1.8,0
			C137.6,11.4,137.6,15.8,137.6,20.3z"/>
		<path fill="#333333" d="M157.2,6.9c0.6,0,1.2,0,1.7,0c0.1,0.2,0.1,13,0,13.4c-0.6,0-1.2,0-1.8,0C157.2,15.8,157.2,11.4,157.2,6.9z
			"/>
		<path fill="#333333" d="M136.8,3.9c-0.8,0-1.4-0.6-1.3-1.3c0-0.7,0.6-1.3,1.3-1.3c0.8,0,1.4,0.5,1.4,1.3
			C138.1,3.3,137.5,3.9,136.8,3.9z"/>
		<path fill="#333333" d="M158.1,3.9c-0.7,0-1.3-0.6-1.3-1.3c0-0.7,0.6-1.3,1.3-1.3c0.8,0,1.4,0.6,1.4,1.3
			C159.5,3.3,158.9,3.9,158.1,3.9z"/>
		<path fill="none" d="M101.6,13.6c0,1-0.2,1.9-0.7,2.8c-0.9,1.5-2.2,2.3-3.9,2.5c-0.9,0.1-1.7,0-2.5-0.4c-1.7-0.7-2.6-2.1-2.9-3.9
			c-0.2-1.2-0.1-2.4,0.5-3.5c0.9-2,2.9-2.9,5-2.7c2.5,0.2,4.4,2.2,4.5,4.8C101.6,13.3,101.6,13.4,101.6,13.6z"/>
		<path fill="none" d="M207.6,12.2c-3.2,0.6-6.3,1.2-9.5,1.8c0-0.3,0-0.6,0-0.9c0-0.9,0.3-1.8,0.8-2.6c0.9-1.3,2.1-2,3.7-2.2
			c0.6,0,1.1,0,1.7,0.1C205.9,8.9,207.3,10.4,207.6,12.2z"/>
		<path fill="none" d="M10,14.9c-0.3-2.8,1.4-5.4,4.3-5.7c1.2-0.1,2.3,0.1,3.3,0.8c1,0.7,1.7,1.7,1.9,3.1
			C16.4,13.6,13.2,14.3,10,14.9z"/>
		<path fill="none" d="M117.7,13.6c0,0.9-0.2,1.8-0.6,2.6c-0.8,1.6-2.2,2.5-4,2.6c-1,0.1-1.9-0.1-2.8-0.5c-1.5-0.8-2.3-2.1-2.6-3.8
			c-0.1-1-0.1-2,0.3-2.9c0.7-1.9,2.1-3,4.1-3.2c1.1-0.1,2.1,0,3,0.5c1.5,0.8,2.2,2,2.5,3.6C117.7,12.9,117.7,13.3,117.7,13.6z"/>
		<path fill="none" d="M174.6,13.6c0,0.9-0.2,1.8-0.6,2.6c-0.8,1.6-2.2,2.5-4,2.6c-1,0.1-1.9-0.1-2.8-0.5c-1.5-0.8-2.3-2.1-2.6-3.8
			c-0.1-1-0.1-2,0.3-2.9c0.7-1.9,2.1-3,4.1-3.2c1.1-0.1,2.1,0,3,0.5c1.5,0.8,2.2,2,2.5,3.6C174.6,12.9,174.6,13.3,174.6,13.6z"/>
	</g>
</g>
</svg>
